<svg width="60" height="60" viewBox="0 0 60 60" fill="none" xmlns="http://www.w3.org/2000/svg">
<circle cx="30" cy="30" r="28.5" stroke="white" stroke-width="3"/>
<path d="M21.5509 18.4285L14.5713 46.7142L38.9999 32.5713L21.5509 18.4285Z" stroke="white" stroke-width="3" stroke-linejoin="round"/>
<path d="M20.9709 10.7385C20.9913 10.7589 21.0084 10.7871 21.039 10.7871" stroke="white" stroke-width="4" stroke-linecap="round"/>
<path d="M13.8036 16.2808C13.7757 16.2971 13.7434 16.3031 13.7258 16.3294" stroke="white" stroke-width="4" stroke-linecap="round"/>
<path d="M15.0288 22.2024C15.0448 22.2179 15.0596 22.2294 15.0774 22.2413" stroke="white" stroke-width="4" stroke-linecap="round"/>
<path d="M10.3901 23.3206C10.4028 23.3368 10.414 23.3474 10.429 23.3594" stroke="white" stroke-width="4" stroke-linecap="round"/>
<path d="M27.2805 13.354C27.2805 13.3927 27.2757 13.4148 27.3097 13.4318" stroke="white" stroke-width="4" stroke-linecap="round"/>
<path d="M30.2749 16.621L30.2846 16.6696" stroke="white" stroke-width="4" stroke-linecap="round"/>
<path d="M34.5347 19.5576V19.6646" stroke="white" stroke-width="4" stroke-linecap="round"/>
<path d="M35.2339 11.0787H35.302" stroke="white" stroke-width="4" stroke-linecap="round"/>
<path d="M41.0969 14.6083C41.0765 14.6386 41.0442 14.6748 41.0288 14.7055" stroke="white" stroke-width="4" stroke-linecap="round"/>
<path d="M46.9703 14.9C46.9576 14.9162 46.9465 14.9269 46.9314 14.9389" stroke="white" stroke-width="4" stroke-linecap="round"/>
<path d="M41.27 22.5576C41.4146 22.5576 41.5192 22.564 41.6368 22.5052" stroke="white" stroke-width="4" stroke-linecap="round"/>
<path d="M48.4473 23.3959L48.7092 23.2911" stroke="white" stroke-width="4" stroke-linecap="round"/>
<path d="M46.9272 28.5305V28.7925" stroke="white" stroke-width="4" stroke-linecap="round"/>
<path d="M50.28 38.0657L50.542 37.9609" stroke="white" stroke-width="4" stroke-linecap="round"/>
<path d="M45.8276 43.6191C45.9149 43.5509 45.9722 43.4908 46.0372 43.4095" stroke="white" stroke-width="4" stroke-linecap="round"/>
<path d="M36.554 47.3389C36.6589 47.3184 36.7628 47.3016 36.8683 47.2865" stroke="white" stroke-width="4" stroke-linecap="round"/>
<path d="M31.5254 46.9721L31.735 46.8149" stroke="white" stroke-width="4" stroke-linecap="round"/>
<path d="M7.32031 32.3549H7.58227" stroke="white" stroke-width="4" stroke-linecap="round"/>
<path d="M45.9858 34.6078L46.0382 34.3458" stroke="white" stroke-width="4" stroke-linecap="round"/>
<path d="M30.1619 8.41198C30.2564 8.33815 30.3714 8.27928 30.3714 8.15002" stroke="white" stroke-width="4" stroke-linecap="round"/>
<path d="M41.27 9.19782C41.3576 9.13416 41.4382 9.08756 41.532 9.04065" stroke="white" stroke-width="4" stroke-linecap="round"/>
</svg>
